<mxfile host="app.diagrams.net" modified="2023-10-23T01:15:44.331Z" agent="Mozilla/5.0 (Windows NT 10.0; Win64; x64) AppleWebKit/537.36 (KHTML, like Gecko) Chrome/118.0.0.0 Safari/537.36 Edg/118.0.2088.46" etag="ZWCn23QYFBLTDtjWkCfb" version="22.0.5" type="github">
  <diagram name="第 1 页" id="YAg8_eKtt_XBkLwv7VZ8">
    <mxGraphModel dx="1186" dy="729" grid="1" gridSize="10" guides="1" tooltips="1" connect="1" arrows="1" fold="1" page="1" pageScale="1" pageWidth="827" pageHeight="1169" math="0" shadow="0">
      <root>
        <mxCell id="0" />
        <mxCell id="1" parent="0" />
        <mxCell id="9l7Nv-4ofogmKkV3S6X5-9" value="" style="endArrow=none;dashed=1;html=1;rounded=0;" edge="1" parent="1">
          <mxGeometry width="50" height="50" relative="1" as="geometry">
            <mxPoint x="700" y="470" as="sourcePoint" />
            <mxPoint x="700" y="150" as="targetPoint" />
          </mxGeometry>
        </mxCell>
        <mxCell id="9l7Nv-4ofogmKkV3S6X5-2" value="" style="endArrow=none;dashed=1;html=1;rounded=0;" edge="1" parent="1">
          <mxGeometry width="50" height="50" relative="1" as="geometry">
            <mxPoint x="520" y="460" as="sourcePoint" />
            <mxPoint x="520" y="150" as="targetPoint" />
          </mxGeometry>
        </mxCell>
        <mxCell id="9l7Nv-4ofogmKkV3S6X5-6" value="" style="edgeStyle=orthogonalEdgeStyle;rounded=0;orthogonalLoop=1;jettySize=auto;html=1;" edge="1" parent="1" source="9l7Nv-4ofogmKkV3S6X5-3" target="9l7Nv-4ofogmKkV3S6X5-5">
          <mxGeometry relative="1" as="geometry" />
        </mxCell>
        <mxCell id="9l7Nv-4ofogmKkV3S6X5-3" value="万象云-支撑平台-网关" style="rounded=1;whiteSpace=wrap;html=1;fillColor=#d5e8d4;strokeColor=#82b366;" vertex="1" parent="1">
          <mxGeometry x="440" y="280" width="120" height="60" as="geometry" />
        </mxCell>
        <mxCell id="9l7Nv-4ofogmKkV3S6X5-10" value="" style="edgeStyle=orthogonalEdgeStyle;rounded=0;orthogonalLoop=1;jettySize=auto;html=1;" edge="1" parent="1" source="9l7Nv-4ofogmKkV3S6X5-4" target="9l7Nv-4ofogmKkV3S6X5-3">
          <mxGeometry relative="1" as="geometry" />
        </mxCell>
        <mxCell id="9l7Nv-4ofogmKkV3S6X5-4" value="环卫/低碳&lt;br&gt;独立数据服务" style="rounded=1;whiteSpace=wrap;html=1;fillColor=#f8cecc;strokeColor=#b85450;" vertex="1" parent="1">
          <mxGeometry x="280" y="280" width="120" height="60" as="geometry" />
        </mxCell>
        <mxCell id="9l7Nv-4ofogmKkV3S6X5-5" value="政府中台" style="rounded=1;whiteSpace=wrap;html=1;" vertex="1" parent="1">
          <mxGeometry x="670" y="280" width="120" height="60" as="geometry" />
        </mxCell>
        <mxCell id="9l7Nv-4ofogmKkV3S6X5-7" value="华润内网" style="text;html=1;strokeColor=none;fillColor=none;align=center;verticalAlign=middle;whiteSpace=wrap;rounded=0;" vertex="1" parent="1">
          <mxGeometry x="390" y="160" width="60" height="30" as="geometry" />
        </mxCell>
        <mxCell id="9l7Nv-4ofogmKkV3S6X5-8" value="互联网" style="text;html=1;strokeColor=none;fillColor=none;align=center;verticalAlign=middle;whiteSpace=wrap;rounded=0;" vertex="1" parent="1">
          <mxGeometry x="540" y="160" width="60" height="30" as="geometry" />
        </mxCell>
        <mxCell id="9l7Nv-4ofogmKkV3S6X5-12" value="" style="edgeStyle=orthogonalEdgeStyle;rounded=0;orthogonalLoop=1;jettySize=auto;html=1;" edge="1" parent="1" source="9l7Nv-4ofogmKkV3S6X5-11" target="9l7Nv-4ofogmKkV3S6X5-4">
          <mxGeometry relative="1" as="geometry" />
        </mxCell>
        <mxCell id="9l7Nv-4ofogmKkV3S6X5-11" value="StarRocks" style="rounded=1;whiteSpace=wrap;html=1;" vertex="1" parent="1">
          <mxGeometry x="30" y="240" width="120" height="60" as="geometry" />
        </mxCell>
        <mxCell id="9l7Nv-4ofogmKkV3S6X5-14" style="edgeStyle=orthogonalEdgeStyle;rounded=0;orthogonalLoop=1;jettySize=auto;html=1;" edge="1" parent="1" source="9l7Nv-4ofogmKkV3S6X5-13" target="9l7Nv-4ofogmKkV3S6X5-4">
          <mxGeometry relative="1" as="geometry" />
        </mxCell>
        <mxCell id="9l7Nv-4ofogmKkV3S6X5-13" value="DSP" style="rounded=1;whiteSpace=wrap;html=1;" vertex="1" parent="1">
          <mxGeometry x="30" y="330" width="120" height="60" as="geometry" />
        </mxCell>
        <mxCell id="9l7Nv-4ofogmKkV3S6X5-15" value="&lt;h1 style=&quot;font-size: 19px;&quot;&gt;&lt;font style=&quot;font-size: 19px;&quot;&gt;要求：&lt;br&gt;1、数据服务是独立的微服务；&lt;/font&gt;&lt;/h1&gt;&lt;h1 style=&quot;font-size: 19px;&quot;&gt;&lt;b style=&quot;background-color: initial;&quot;&gt;2、数据服务出口走万象云支撑平台网关；&lt;/b&gt;&lt;/h1&gt;&lt;div style=&quot;font-size: 19px;&quot;&gt;&lt;b style=&quot;&quot;&gt;&lt;font style=&quot;font-size: 19px;&quot;&gt;3、数据源来自StarRocks或者DSP；&lt;/font&gt;&lt;/b&gt;&lt;/div&gt;" style="text;html=1;strokeColor=none;fillColor=none;spacing=5;spacingTop=-20;whiteSpace=wrap;overflow=hidden;rounded=0;" vertex="1" parent="1">
          <mxGeometry x="200" y="490" width="390" height="130" as="geometry" />
        </mxCell>
      </root>
    </mxGraphModel>
  </diagram>
</mxfile>
